<svg width="50" height="50" viewBox="0 0 50 50" fill="none" xmlns="http://www.w3.org/2000/svg">
<g clip-path="url(#clip0_92_306)">
<path d="M14.5833 16.6666V12.4999C14.5833 9.73725 15.6808 7.08773 17.6343 5.13422C19.5878 3.18072 22.2373 2.08325 25 2.08325C27.7627 2.08325 30.4122 3.18072 32.3657 5.13422C34.3192 7.08773 35.4167 9.73725 35.4167 12.4999V16.6666H41.6667C42.2192 16.6666 42.7491 16.8861 43.1398 17.2768C43.5305 17.6675 43.75 18.1974 43.75 18.7499V43.7499C43.75 44.3025 43.5305 44.8324 43.1398 45.2231C42.7491 45.6138 42.2192 45.8333 41.6667 45.8333H8.33333C7.7808 45.8333 7.25089 45.6138 6.86019 45.2231C6.46949 44.8324 6.25 44.3025 6.25 43.7499V18.7499C6.25 18.1974 6.46949 17.6675 6.86019 17.2768C7.25089 16.8861 7.7808 16.6666 8.33333 16.6666H14.5833ZM14.5833 20.8333H10.4167V41.6666H39.5833V20.8333H35.4167V24.9999H31.25V20.8333H18.75V24.9999H14.5833V20.8333ZM18.75 16.6666H31.25V12.4999C31.25 10.8423 30.5915 9.2526 29.4194 8.0805C28.2473 6.9084 26.6576 6.24992 25 6.24992C23.3424 6.24992 21.7527 6.9084 20.5806 8.0805C19.4085 9.2526 18.75 10.8423 18.75 12.4999V16.6666Z" fill="#1A202C"/>
</g>
<defs>
<clipPath id="clip0_92_306">
<rect width="50" height="50" fill="white"/>
</clipPath>
</defs>
</svg>
